<svg xmlns="http://www.w3.org/2000/svg" viewBox="0 0 204.93 33.47"><defs><style>.cls-1{fill:#fff;}</style></defs><g id="Layer_2" data-name="Layer 2"><g id="Layer_1-2" data-name="Layer 1"><path class="cls-1" d="M38.21,3.49V31.32H31.89V3.49Z"/><path class="cls-1" d="M49,8.78H41.55V3.49H62.94V8.78h-7.6V31.32H49Z"/><path class="cls-1" d="M82.84,19.55H72.6v6.61H84v5.16H66.28V3.49H83.46V8.65H72.6v5.78H82.84Z"/><path class="cls-1" d="M96.67,31.32V3.49H104l5.78,10.2a80.89,80.89,0,0,1,4.54,9.54h.13a101.89,101.89,0,0,1-.54-11.64V3.49h5.78V31.32H113.1l-5.94-10.73a104.26,104.26,0,0,1-4.83-9.83l-.13,0c.17,3.68.25,7.6.25,12.14v8.38Z"/><path class="cls-1" d="M131.64,24.18l-2,7.14h-6.52l8.5-27.83h8.26l8.63,27.83h-6.77l-2.15-7.14Zm7.06-4.71L137,13.57c-.5-1.65-1-3.72-1.41-5.37h-.08c-.41,1.65-.82,3.76-1.28,5.37l-1.65,5.9Z"/><path class="cls-1" d="M175.78,20.67c-.13-3.35-.25-7.39-.25-11.44h-.12c-.87,3.55-2,7.52-3.1,10.78l-3.39,10.86H164l-3-10.74c-.91-3.3-1.86-7.26-2.52-10.9h-.08c-.17,3.76-.29,8.05-.5,11.52l-.49,10.57h-5.83L153.4,3.49h8.38l2.73,9.29c.86,3.18,1.73,6.69,2.35,10H167c.79-3.22,1.74-6.89,2.65-10l3-9.25h8.21l1.53,27.83h-6.15Z"/><path class="cls-1" d="M203.73,19.55H193.49v6.61h11.44v5.16H187.17V3.49h17.18V8.65H193.49v5.78h10.24Z"/><path class="cls-1" d="M25.43,7.57A14.25,14.25,0,0,0,6.16,1.67l7.2,13.55A14.25,14.25,0,0,1,27,15.41,14.21,14.21,0,0,0,25.43,7.57Z"/><path class="cls-1" d="M.05,18.06A14.23,14.23,0,0,0,20.92,31.8L13.73,18.24A14.22,14.22,0,0,1,.05,18.06Z"/></g></g></svg>